# xmcd CD database file
#
# Track frame offsets:
#	150
#	9092
#	31466
#	55152
#	70453
#	89822
#	109426
#	126599
#	130120
#	147469
#	162849
#	180465
#	198525
#	222915
#
# Disc length: 3267 seconds
#
# Revision: 0
# Processed by: cddbd v1.5.1PL2 Copyright (c) Steve Scherf et al.
# Submitted via: CD2WAV32(EN) R3.19
#
DISCID=d60cc10e
DTITLE=LITTLE - Life
DYEAR=1900
DGENRE=
TTITLE0=01 Little
TTITLE1=02 I Sing , I Say
TTITLE2=03 ???? ?What's Going On? Feat,??????
TTITLE3=04 Unko Shit !
TTITLE4=05 ??????
TTITLE5=06 ?????????
TTITLE6=07 ???? Featuring Keyco , Corn Head
TTITLE7=08 ???
TTITLE8=09 ??????
TTITLE9=10 Youth and Youth feat.??-T
TTITLE10=11 Hard?? Part2 Featuring Zingi
TTITLE11=12 ??????????
TTITLE12=13 I Love You Miss Microphone Featuring DJ Kaori
TTITLE13=14 Lifeline Baby
EXTD=
EXTT0=
EXTT1=
EXTT2=
EXTT3=
EXTT4=
EXTT5=
EXTT6=
EXTT7=
EXTT8=
EXTT9=
EXTT10=
EXTT11=
EXTT12=
EXTT13=
PLAYORDER=
